<svg width="72" height="49" viewBox="0 0 72 49" fill="none" xmlns="http://www.w3.org/2000/svg">
<g filter="url(#filter0_d_316_92)">
<path d="M4 10C4 4.47715 8.47715 0 14 0H57.55C63.0729 0 67.55 4.47715 67.55 10V31C67.55 36.5228 63.0728 41 57.55 41H14C8.47714 41 4 36.5228 4 31V10Z" fill="white"/>
</g>
<path d="M34.3884 28.2822C34.5317 28.4251 34.6455 28.5948 34.7231 28.7817C34.8007 28.9686 34.8406 29.169 34.8406 29.3713C34.8406 29.5737 34.8007 29.774 34.7231 29.9609C34.6455 30.1478 34.5317 30.3175 34.3884 30.4604L33.7324 31.1164C33.036 31.8153 32.208 32.3693 31.2962 32.7462C30.3844 33.1232 29.407 33.3156 28.4203 33.3124C26.9345 33.3129 25.4819 32.8727 24.2464 32.0474C23.0108 31.2222 22.0477 30.049 21.4791 28.6763C20.9104 27.3036 20.7617 25.7931 21.0517 24.3358C21.3417 22.8786 22.0574 21.5401 23.1083 20.4897L27.5606 16.0373C28.5076 15.0905 29.6905 14.4139 30.9868 14.0777C32.2831 13.7416 33.6457 13.758 34.9335 14.1253C36.2214 14.4926 37.3876 15.1974 38.3116 16.1668C39.2355 17.1362 39.8836 18.335 40.1886 19.6389C40.2391 19.8372 40.2496 20.0436 40.2193 20.2459C40.1891 20.4483 40.1187 20.6425 40.0125 20.8174C39.9062 20.9922 39.766 21.144 39.6003 21.264C39.4346 21.384 39.2466 21.4697 39.0473 21.5161C38.848 21.5624 38.6415 21.5686 38.4398 21.5341C38.2381 21.4997 38.0454 21.4253 37.8728 21.3154C37.7002 21.2055 37.5513 21.0623 37.4348 20.8941C37.3183 20.7259 37.2366 20.5361 37.1943 20.3359C37.0133 19.5662 36.63 18.8588 36.084 18.2868C35.538 17.7148 34.8491 17.2991 34.0886 17.0825C33.3281 16.8659 32.5236 16.8564 31.7582 17.0549C30.9928 17.2534 30.2943 17.6527 29.7349 18.2116L25.2825 22.664C24.6619 23.2841 24.2391 24.0743 24.0676 24.9347C23.8962 25.7952 23.9837 26.6871 24.3191 27.4978C24.6546 28.3085 25.2229 29.0014 25.9523 29.4891C26.6816 29.9768 27.5391 30.2372 28.4165 30.2374C28.9994 30.2391 29.5769 30.1252 30.1155 29.9022C30.6541 29.6792 31.1432 29.3515 31.5543 28.9382L32.209 28.2822C32.3518 28.1387 32.5217 28.0248 32.7087 27.9471C32.8957 27.8694 33.0962 27.8294 33.2987 27.8294C33.5012 27.8294 33.7017 27.8694 33.8887 27.9471C34.0757 28.0248 34.2455 28.1387 34.3884 28.2822ZM48.4373 9.88734C47.0281 8.47862 45.1171 7.68726 43.1246 7.68726C41.132 7.68726 39.2211 8.47862 37.8119 9.88734L37.1572 10.5421C36.8683 10.8309 36.7061 11.2226 36.7061 11.6311C36.7061 12.0396 36.8683 12.4313 37.1572 12.7202C37.446 13.009 37.8378 13.1713 38.2462 13.1713C38.6547 13.1713 39.0465 13.009 39.3353 12.7202L39.9913 12.0642C40.8238 11.2317 41.953 10.7639 43.1304 10.7639C44.3077 10.7639 45.4369 11.2317 46.2694 12.0642C47.102 12.8967 47.5697 14.0259 47.5697 15.2032C47.5697 16.3806 47.102 17.5098 46.2694 18.3423L41.8094 22.7882C41.3983 23.2015 40.9093 23.5292 40.3707 23.7522C39.832 23.9752 39.2546 24.0891 38.6716 24.0874C37.6716 24.0867 36.7011 23.7482 35.9176 23.1268C35.1341 22.5054 34.5835 21.6375 34.3551 20.6639C34.2626 20.2667 34.0162 19.9224 33.67 19.7069C33.3237 19.4914 32.906 19.4222 32.5088 19.5147C32.1116 19.6071 31.7673 19.8535 31.5518 20.1998C31.3362 20.546 31.2671 20.9637 31.3595 21.3609C31.7453 23.0097 32.6768 24.4799 34.0029 25.5329C35.3289 26.586 36.9719 27.1602 38.6652 27.1624H38.6716C39.6587 27.1651 40.6365 26.9721 41.5486 26.5945C42.4606 26.2169 43.2887 25.6622 43.985 24.9625L48.4373 20.5102C49.1349 19.8127 49.6883 18.9847 50.0658 18.0733C50.4434 17.162 50.6377 16.1852 50.6377 15.1988C50.6377 14.2123 50.4434 13.2355 50.0658 12.3242C49.6883 11.4128 49.1349 10.5848 48.4373 9.88734Z" fill="#0386FF"/>
<defs>
<filter id="filter0_d_316_92" x="0" y="0" width="71.5498" height="49" filterUnits="userSpaceOnUse" color-interpolation-filters="sRGB">
<feFlood flood-opacity="0" result="BackgroundImageFix"/>
<feColorMatrix in="SourceAlpha" type="matrix" values="0 0 0 0 0 0 0 0 0 0 0 0 0 0 0 0 0 0 127 0" result="hardAlpha"/>
<feOffset dy="4"/>
<feGaussianBlur stdDeviation="2"/>
<feComposite in2="hardAlpha" operator="out"/>
<feColorMatrix type="matrix" values="0 0 0 0 0 0 0 0 0 0 0 0 0 0 0 0 0 0 0.25 0"/>
<feBlend mode="normal" in2="BackgroundImageFix" result="effect1_dropShadow_316_92"/>
<feBlend mode="normal" in="SourceGraphic" in2="effect1_dropShadow_316_92" result="shape"/>
</filter>
</defs>
</svg>
